<?xml version="1.0" encoding="UTF-8"?> <svg xmlns="http://www.w3.org/2000/svg" xmlns:xlink="http://www.w3.org/1999/xlink" width="300" zoomAndPan="magnify" viewBox="0 0 224.87999 104.999996" height="140" preserveAspectRatio="xMidYMid meet" version="1.0"><defs><clipPath id="370e7a05a0"><path d="M 213 41 L 224.761719 41 L 224.761719 65 L 213 65 Z M 213 41 " clip-rule="nonzero"></path></clipPath><clipPath id="2031938e39"><path d="M 0 30.390625 L 44 30.390625 L 44 74.617188 L 0 74.617188 Z M 0 30.390625 " clip-rule="nonzero"></path></clipPath></defs><path fill="#000b0a" d="M 84.367188 46.511719 C 82.066406 46.511719 80.382812 47.316406 79.25 48.640625 L 79.25 46.511719 L 74.101562 46.511719 L 74.101562 71.449219 L 79.25 71.449219 L 79.25 62.824219 C 80.382812 64.148438 82.0625 64.949219 84.367188 64.949219 C 88.863281 64.949219 92.570312 60.933594 92.570312 55.730469 C 92.570312 50.53125 88.863281 46.511719 84.367188 46.511719 Z M 83.335938 59.992188 C 80.96875 59.992188 79.25 58.351562 79.25 55.730469 C 79.25 53.113281 80.96875 51.472656 83.335938 51.472656 C 85.703125 51.472656 87.421875 53.113281 87.421875 55.730469 C 87.421875 58.351562 85.707031 59.992188 83.335938 59.992188 Z M 83.335938 59.992188 " fill-opacity="1" fill-rule="evenodd"></path><path fill="#000b0a" d="M 112.148438 55.75 C 112.148438 50.46875 108.3125 46.511719 103.125 46.511719 C 97.511719 46.511719 93.679688 50.539062 93.679688 55.75 C 93.679688 60.960938 97.441406 64.984375 103.515625 64.984375 C 106.890625 64.984375 109.519531 63.757812 111.261719 61.378906 L 106.996094 58.964844 C 106.285156 59.738281 105.042969 60.296875 103.585938 60.296875 C 101.632812 60.296875 100 59.667969 99.324219 57.847656 L 111.929688 57.847656 C 112.070312 57.183594 112.140625 56.484375 112.140625 55.75 Z M 99.222656 53.929688 C 99.71875 52.144531 101.070312 51.164062 103.09375 51.164062 C 104.691406 51.164062 106.289062 51.902344 106.859375 53.929688 Z M 99.222656 53.929688 " fill-opacity="1" fill-rule="evenodd"></path><path fill="#000b0a" d="M 131.726562 55.75 C 131.726562 50.46875 127.886719 46.511719 122.703125 46.511719 C 117.089844 46.511719 113.257812 50.539062 113.257812 55.75 C 113.257812 60.960938 117.019531 64.984375 123.09375 64.984375 C 126.46875 64.984375 129.097656 63.757812 130.839844 61.378906 L 126.574219 58.964844 C 125.863281 59.738281 124.621094 60.296875 123.164062 60.296875 C 121.207031 60.296875 119.574219 59.667969 118.898438 57.847656 L 131.507812 57.847656 C 131.648438 57.183594 131.71875 56.484375 131.71875 55.75 Z M 118.796875 53.929688 C 119.292969 52.144531 120.644531 51.164062 122.667969 51.164062 C 124.265625 51.164062 125.863281 51.902344 126.433594 53.929688 Z M 118.796875 53.929688 " fill-opacity="1" fill-rule="evenodd"></path><path fill="#000b0a" d="M 146.152344 40.046875 L 146.152344 48.671875 C 145.019531 47.347656 143.339844 46.546875 141.035156 46.546875 C 136.539062 46.546875 132.832031 50.5625 132.832031 55.765625 C 132.832031 60.964844 136.539062 64.984375 141.035156 64.984375 C 143.335938 64.984375 145.019531 64.179688 146.152344 62.855469 L 146.152344 64.984375 L 151.300781 64.984375 L 151.300781 40.046875 Z M 142.070312 60.023438 C 139.699219 60.023438 137.980469 58.382812 137.980469 55.765625 C 137.980469 53.144531 139.695312 51.503906 142.070312 51.503906 C 144.441406 51.503906 146.15625 53.144531 146.15625 55.765625 C 146.15625 58.382812 144.441406 60.023438 142.070312 60.023438 Z M 142.070312 60.023438 " fill-opacity="1" fill-rule="evenodd"></path><path fill="#000b0a" d="M 165.304688 46.511719 L 170.878906 46.511719 L 164.917969 63.777344 C 162.964844 69.4375 159.863281 71.679688 154.984375 71.429688 L 154.984375 66.445312 C 157.421875 66.445312 158.574219 65.660156 159.339844 63.492188 L 152.40625 46.511719 L 158.15625 46.511719 L 162.023438 57.40625 L 165.300781 46.511719 Z M 165.304688 46.511719 " fill-opacity="1" fill-rule="evenodd"></path><path fill="#00f8a3" d="M 186.167969 52.042969 C 188.09375 51.011719 189.378906 49.015625 189.378906 46.589844 C 189.378906 42.988281 186.457031 40.03125 182.820312 40.03125 L 172.875 40.03125 L 172.875 64.984375 L 183.640625 64.984375 C 187.417969 64.984375 190.449219 61.953125 190.449219 58.171875 C 190.449219 55.320312 188.667969 53.003906 186.171875 52.042969 Z M 174.761719 41.8125 L 182.820312 41.8125 C 185.386719 41.8125 187.488281 43.953125 187.488281 46.589844 C 187.488281 49.226562 185.386719 51.363281 182.820312 51.363281 L 174.761719 51.363281 Z M 183.636719 63.203125 L 174.761719 63.203125 L 174.761719 53.148438 L 183.636719 53.148438 C 186.347656 53.148438 188.558594 55.394531 188.558594 58.171875 C 188.558594 60.953125 186.347656 63.199219 183.636719 63.199219 Z M 183.636719 63.203125 " fill-opacity="1" fill-rule="evenodd"></path><path fill="#00f8a3" d="M 211.503906 55.773438 C 211.503906 50.890625 208.117188 46.398438 202.699219 46.398438 C 197.28125 46.398438 193.46875 50.464844 193.46875 55.703125 C 193.46875 60.941406 197.351562 65.007812 202.839844 65.007812 C 206.371094 65.007812 209.152344 63.402344 210.609375 60.980469 L 209.042969 60.054688 C 208.007812 61.945312 205.796875 63.300781 202.875 63.300781 C 198.808594 63.300781 195.746094 60.664062 195.316406 56.632812 L 211.464844 56.632812 C 211.464844 56.347656 211.5 56.0625 211.5 55.777344 Z M 195.320312 54.882812 C 195.675781 50.925781 198.636719 48.113281 202.695312 48.113281 C 206.1875 48.113281 209.257812 50.535156 209.648438 54.882812 Z M 195.320312 54.882812 " fill-opacity="1" fill-rule="evenodd"></path><g clip-path="url(#370e7a05a0)"><path fill="#00f8a3" d="M 224.855469 48.722656 L 219.546875 48.722656 L 219.546875 60.308594 C 219.546875 63.445312 221.21875 63.515625 224.855469 63.195312 L 224.855469 64.800781 C 220.1875 65.511719 217.730469 64.375 217.730469 60.308594 L 217.730469 48.722656 L 213.808594 48.722656 L 213.808594 46.976562 L 217.730469 46.976562 L 217.730469 42.523438 L 219.546875 41.988281 L 219.546875 46.976562 L 224.859375 46.976562 L 224.859375 48.722656 Z M 224.855469 48.722656 " fill-opacity="1" fill-rule="evenodd"></path></g><path fill="#000b0a" d="M 64.082031 64.992188 C 59.054688 64.992188 55.839844 62.59375 54.507812 59.066406 L 59.226562 56.324219 C 60.082031 58.3125 61.550781 59.648438 64.253906 59.648438 C 66.957031 59.648438 67.503906 58.621094 67.503906 57.695312 C 67.503906 56.226562 66.136719 55.640625 62.546875 54.648438 C 58.988281 53.65625 55.5 51.941406 55.5 47.355469 C 55.5 42.765625 59.398438 40.058594 63.535156 40.058594 C 67.675781 40.058594 70.546875 41.941406 72.292969 45.46875 L 67.675781 48.175781 C 66.851562 46.464844 65.726562 45.402344 63.535156 45.402344 C 61.828125 45.402344 60.972656 46.257812 60.972656 47.21875 C 60.972656 48.3125 61.554688 49.070312 65.285156 50.195312 C 68.910156 51.292969 72.980469 52.558594 72.980469 57.628906 C 72.980469 62.25 69.285156 64.992188 64.085938 64.992188 Z M 64.082031 64.992188 " fill-opacity="1" fill-rule="evenodd"></path><g clip-path="url(#2031938e39)"><path fill="#00f8a3" d="M 9.777344 74.605469 C -2.925781 74.605469 -3.535156 30.390625 9.777344 30.390625 C 23.09375 30.390625 43.933594 44.601562 43.933594 52.5 C 43.933594 60.394531 22.480469 74.605469 9.777344 74.605469 Z M 14.105469 62.816406 C 18.167969 62.816406 30.652344 55.386719 30.652344 52.5 C 30.652344 49.609375 18.882812 42.179688 14.105469 42.179688 C 9.328125 42.179688 10.039062 62.8125 14.105469 62.8125 Z M 14.105469 62.816406 " fill-opacity="1" fill-rule="evenodd"></path></g></svg> 